<?xml version="1.0" standalone="no"?>
<!DOCTYPE svg PUBLIC "-//W3C//DTD SVG 20010904//EN"
 "http://www.w3.org/TR/2001/REC-SVG-20010904/DTD/svg10.dtd">
<svg version="1.0" xmlns="http://www.w3.org/2000/svg"
 width="200.000000pt" height="200.000000pt" viewBox="0 0 200.000000 200.000000"
 preserveAspectRatio="xMidYMid meet">
<metadata>
Created by potrace 1.14, written by Peter Selinger 2001-2017
</metadata>
<g transform="translate(0.000000,200.000000) scale(0.100000,-0.100000)"
fill="#000000" stroke="none">
<path d="M994 1892 c-36 -25 -63 -120 -31 -109 6 2 12 18 12 36 0 47 28 59 60
27 25 -25 29 -46 26 -119 -4 -68 -16 -87 -55 -87 -82 0 -107 96 -59 220 4 10
-1 9 -17 -5 -55 -48 -68 -162 -25 -213 37 -44 77 -50 124 -19 88 58 107 215
32 260 -31 18 -50 21 -67 9z"/>
<path d="M705 1858 c-40 -14 -41 -16 -22 -31 9 -6 30 -49 47 -95 35 -96 36
-96 -77 3 -41 37 -62 63 -59 72 5 12 0 13 -27 8 -55 -12 -81 -29 -99 -65 -18
-35 -18 -35 -18 -7 0 32 1 31 -48 12 -43 -18 -72 -59 -72 -102 0 -39 22 -57
94 -79 69 -22 95 -51 78 -89 -13 -28 -69 -43 -101 -26 -25 14 -26 24 -6 45 16
15 20 46 7 46 -18 0 -32 -27 -32 -63 0 -59 14 -77 61 -77 66 0 110 66 94 139
-8 38 -23 50 -97 75 -75 26 -93 49 -59 77 29 24 58 25 65 1 7 -20 45 -27 47
-9 1 7 0 22 -1 34 -1 20 24 43 49 43 11 0 71 -180 71 -212 0 -9 -8 -21 -17
-27 -34 -19 -7 -17 57 3 57 18 61 21 34 24 -35 3 -45 19 -75 116 -28 90 -30
91 115 -45 57 -54 59 -56 92 -44 45 15 53 25 22 25 -20 0 -29 8 -41 38 -18 46
-60 193 -55 196 2 2 12 8 23 14 l20 11 -20 0 c-11 0 -33 -5 -50 -11z"/>
<path d="M1184 1841 c-36 -22 -48 -37 -39 -51 9 -14 32 -1 38 21 4 14 14 19
36 19 29 0 31 -2 25 -27 -6 -25 -57 -166 -79 -217 -6 -14 -5 -17 3 -12 7 4 22
0 34 -8 74 -52 208 31 163 100 -8 13 -21 24 -28 24 -6 1 3 7 20 15 18 8 38 26
45 40 16 35 -7 56 -96 89 -82 31 -83 31 -122 7z m164 -53 c31 -26 -3 -83 -45
-75 -33 6 -37 -7 -7 -23 31 -17 41 -56 23 -89 -18 -32 -49 -38 -78 -14 l-22
18 30 85 c43 125 41 121 65 114 11 -4 27 -11 34 -16z"/>
<path d="M1489 1753 c-15 -2 -35 -13 -45 -24 -16 -18 -16 -19 1 -19 10 0 27 7
36 16 17 16 22 15 64 -13 l45 -29 -83 -61 c-45 -33 -102 -73 -126 -89 l-44
-29 30 -6 c45 -9 53 -17 78 -74 13 -29 31 -55 40 -59 28 -10 80 -7 99 7 18 13
18 14 1 21 -11 4 -25 0 -35 -9 -15 -14 -18 -13 -32 2 -8 10 -29 44 -47 76 -28
52 -30 60 -17 70 9 7 60 46 115 87 96 72 99 75 72 81 -16 3 -44 17 -62 30 -35
25 -48 28 -90 22z"/>
<path d="M931 1549 c-124 -23 -213 -131 -212 -260 0 -90 45 -171 120 -220 23
-14 21 -15 -48 -16 -39 0 -74 -2 -77 -6 -3 -3 11 -40 31 -83 19 -43 33 -84 31
-91 -3 -7 6 -34 20 -61 25 -46 25 -47 5 -50 -25 -4 -52 -39 -44 -59 3 -8 -4
-23 -16 -34 -27 -26 -48 -67 -52 -104 -2 -16 -9 -38 -17 -47 -10 -12 -11 -21
-2 -37 23 -45 79 -11 58 35 -25 54 21 144 73 144 37 0 64 -27 80 -80 10 -32
10 -45 -1 -65 -11 -20 -11 -27 0 -40 19 -23 54 -15 58 14 2 13 -1 28 -7 34 -6
6 -11 21 -11 33 0 31 -25 86 -49 108 -12 11 -21 23 -21 28 0 14 240 10 244 -4
4 -18 22 -69 31 -91 5 -13 4 -18 -6 -17 -8 1 -49 2 -91 1 -62 -1 -78 -4 -78
-16 0 -12 17 -15 93 -15 l94 0 54 -112 c48 -101 54 -120 54 -178 0 -64 0 -65
-28 -68 -26 -3 -28 -6 -22 -33 l7 -29 -226 0 c-178 0 -226 3 -226 13 0 9 20
13 73 12 85 -1 109 4 104 19 -2 7 -45 13 -113 16 l-109 5 -3 57 c-3 52 2 68
54 178 49 103 60 120 80 120 15 0 24 6 24 15 0 8 -9 15 -20 15 -16 0 -19 4
-12 17 10 19 5 43 -8 43 -11 0 -51 -70 -45 -80 3 -4 -21 -61 -52 -126 -50
-104 -56 -125 -57 -182 0 -52 3 -67 19 -81 11 -9 26 -28 32 -43 l13 -28 244 0
c235 0 246 1 256 20 6 11 7 20 3 20 -4 0 5 11 22 24 27 22 29 28 29 87 -1 57
-7 78 -57 183 -31 65 -55 122 -52 126 3 5 -6 28 -20 52 -34 59 -34 138 0 201
13 26 22 53 19 60 -3 8 12 49 32 91 26 54 34 80 26 85 -6 4 -39 6 -72 5 l-60
-2 45 40 c56 50 85 104 92 174 18 174 -133 313 -306 283z m149 -40 l45 -21
-30 -14 c-18 -8 -45 -11 -67 -8 -43 7 -78 -9 -78 -36 0 -10 -7 -25 -15 -34
-18 -17 -20 -46 -3 -46 6 0 4 -6 -6 -13 -12 -9 -17 -23 -14 -47 3 -31 6 -35
33 -35 27 -1 30 -4 31 -35 1 -87 67 -109 79 -28 6 38 10 52 23 76 7 12 10 22
6 22 -3 0 0 7 7 16 12 15 14 14 19 -7 8 -32 40 -38 40 -8 0 21 1 21 18 6 25
-23 40 -21 46 6 3 12 3 -1 1 -30 -10 -129 -105 -216 -235 -217 -66 0 -137 24
-147 50 -2 7 7 30 21 53 14 22 26 50 26 61 0 28 -49 69 -81 70 -15 0 -29 7
-33 15 -3 8 -1 15 4 15 5 0 12 10 16 23 4 12 16 28 26 36 11 7 17 19 14 27 -3
8 1 14 9 14 8 0 31 14 51 32 32 28 34 33 20 44 -32 23 -13 31 74 33 37 0 70
-6 100 -20z m-200 -30 c0 -4 -10 -15 -22 -23 -17 -12 -25 -13 -36 -4 -11 10
-10 15 9 29 22 16 49 16 49 -2z m296 -50 c14 -23 26 -53 27 -67 2 -23 -2 -27
-23 -28 -14 0 -31 -3 -37 -7 -6 -4 -14 -3 -18 3 -9 14 -55 13 -55 -1 0 -7 -8
-18 -17 -25 -15 -11 -15 -15 -4 -23 8 -5 10 -11 3 -15 -6 -4 -14 -27 -18 -52
-8 -57 -28 -53 -32 7 -4 48 -16 62 -49 54 -19 -5 -23 -1 -23 20 0 25 10 30 53
25 22 -2 70 28 62 39 -2 5 -21 12 -40 15 -19 4 -35 11 -35 17 0 6 4 8 9 4 18
-10 24 18 7 30 -15 12 -15 13 0 19 9 3 23 1 30 -5 7 -6 17 -8 22 -5 5 3 26 6
46 8 21 1 40 8 43 15 9 22 22 15 49 -28z m-378 -27 c2 -7 -3 -12 -12 -12 -9 0
-17 -4 -17 -10 -1 -5 -2 -14 -3 -19 -2 -18 -16 -24 -16 -8 0 45 37 82 48 49z
m196 -51 c4 -5 -3 -7 -14 -4 -23 6 -26 13 -6 13 8 0 17 -4 20 -9z m-168 -96
c4 -8 12 -15 20 -15 20 0 17 -23 -7 -64 -23 -40 -34 -46 -26 -17 3 11 -2 29
-10 41 -23 33 -24 70 -1 70 10 0 21 -7 24 -15z m-66 -17 c0 -5 7 -25 16 -44 9
-19 14 -37 10 -41 -6 -7 -45 74 -46 95 0 7 5 10 10 7 6 -3 10 -11 10 -17z
m424 -240 c-3 -13 -17 -44 -30 -70 -21 -42 -28 -48 -57 -49 -38 0 -211 0 -249
0 -23 1 -32 10 -52 49 -13 26 -27 57 -30 70 l-7 22 216 0 216 0 -7 -22z m-66
-157 c10 -1 10 -6 1 -23 -7 -13 -15 -36 -19 -53 l-6 -30 -122 -3 -122 -3 0 28
c-1 15 -7 39 -15 53 -8 14 -14 27 -15 30 0 4 258 5 298 1z m-300 -129 c2 -7
-3 -12 -12 -12 -9 0 -16 7 -16 16 0 17 22 14 28 -4z"/>
<path d="M787 993 c-6 -11 9 -49 22 -58 17 -10 24 20 11 44 -11 21 -25 27 -33
14z"/>
<path d="M825 920 c-10 -17 12 -37 25 -24 8 8 6 15 -4 23 -10 9 -16 9 -21 1z"/>
<path d="M1106 472 c-2 -4 -1 -14 4 -22 7 -11 12 -12 21 -3 6 6 8 16 5 22 -8
13 -23 14 -30 3z"/>
<path d="M1140 402 c0 -6 11 -34 25 -64 14 -29 25 -70 25 -90 0 -27 4 -38 15
-38 38 0 -9 190 -49 198 -9 2 -16 -1 -16 -6z"/>
</g>
</svg>
